<mxfile host="Electron" agent="Mozilla/5.0 (Windows NT 10.0; Win64; x64) AppleWebKit/537.36 (KHTML, like Gecko) draw.io/28.0.4 Chrome/138.0.7204.97 Electron/37.2.1 Safari/537.36" version="28.0.4">
  <diagram id="backprophet-arch" name="backprophet architecture">
    <mxGraphModel dx="2889" dy="1031" grid="1" gridSize="10" guides="1" tooltips="1" connect="1" arrows="1" fold="1" page="1" pageScale="1" pageWidth="1400" pageHeight="1000" math="0" shadow="0">
      <root>
        <mxCell id="0" />
        <mxCell id="1" parent="0" />
        <mxCell id="FXe-sDpAwAi_hHGuQjFn-215" value="" style="whiteSpace=wrap;html=1;fillColor=none;dashed=1;dashPattern=8 8;" vertex="1" parent="1">
          <mxGeometry x="180" y="100" width="510" height="540" as="geometry" />
        </mxCell>
        <mxCell id="Ah8lOHSkubVP9YHAVAq6-215" value="" style="whiteSpace=wrap;html=1;fillColor=none;dashed=1;dashPattern=8 8;" vertex="1" parent="1">
          <mxGeometry x="-350" y="120" width="490" height="510" as="geometry" />
        </mxCell>
        <mxCell id="FXe-sDpAwAi_hHGuQjFn-227" style="edgeStyle=orthogonalEdgeStyle;rounded=0;orthogonalLoop=1;jettySize=auto;html=1;" edge="1" parent="1" source="2" target="5">
          <mxGeometry relative="1" as="geometry" />
        </mxCell>
        <mxCell id="FXe-sDpAwAi_hHGuQjFn-228" style="edgeStyle=orthogonalEdgeStyle;rounded=0;orthogonalLoop=1;jettySize=auto;html=1;entryX=0;entryY=0.5;entryDx=0;entryDy=0;" edge="1" parent="1" source="2" target="3">
          <mxGeometry relative="1" as="geometry">
            <Array as="points">
              <mxPoint x="230" y="370" />
              <mxPoint x="230" y="150" />
            </Array>
          </mxGeometry>
        </mxCell>
        <mxCell id="FXe-sDpAwAi_hHGuQjFn-229" style="edgeStyle=orthogonalEdgeStyle;rounded=0;orthogonalLoop=1;jettySize=auto;html=1;entryX=0;entryY=0.5;entryDx=0;entryDy=0;" edge="1" parent="1" source="2" target="4">
          <mxGeometry relative="1" as="geometry">
            <Array as="points">
              <mxPoint x="230" y="370" />
              <mxPoint x="230" y="260" />
            </Array>
          </mxGeometry>
        </mxCell>
        <mxCell id="FXe-sDpAwAi_hHGuQjFn-230" style="edgeStyle=orthogonalEdgeStyle;rounded=0;orthogonalLoop=1;jettySize=auto;html=1;entryX=0;entryY=0.5;entryDx=0;entryDy=0;" edge="1" parent="1" source="2" target="6">
          <mxGeometry relative="1" as="geometry">
            <Array as="points">
              <mxPoint x="230" y="370" />
              <mxPoint x="230" y="480" />
            </Array>
          </mxGeometry>
        </mxCell>
        <mxCell id="FXe-sDpAwAi_hHGuQjFn-231" style="edgeStyle=orthogonalEdgeStyle;rounded=0;orthogonalLoop=1;jettySize=auto;html=1;entryX=0;entryY=0.5;entryDx=0;entryDy=0;" edge="1" parent="1" source="2" target="7">
          <mxGeometry relative="1" as="geometry">
            <Array as="points">
              <mxPoint x="230" y="370" />
              <mxPoint x="230" y="590" />
            </Array>
          </mxGeometry>
        </mxCell>
        <mxCell id="2" value="&lt;b&gt;&lt;font style=&quot;font-size: 19px;&quot;&gt;1_datacrawler.py&lt;br&gt;&lt;/font&gt;&lt;/b&gt;&lt;div&gt;&lt;br&gt;&lt;/div&gt;&lt;div&gt;&lt;br&gt;&lt;/div&gt;&lt;div&gt;&lt;span style=&quot;font-size: 19px; background-color: transparent; color: light-dark(rgb(0, 0, 0), rgb(255, 255, 255));&quot;&gt;Crawls data &amp;amp; saves unified dataset&lt;/span&gt;&lt;/div&gt;" style="rounded=1;whiteSpace=wrap;html=1;shadow=0;strokeWidth=1;" parent="1" vertex="1">
          <mxGeometry x="-150" y="300" width="260" height="140" as="geometry" />
        </mxCell>
        <mxCell id="3" value="&lt;b&gt;2_simple_mlp.py&amp;nbsp;&lt;/b&gt;&lt;div&gt;Train &amp;amp; evaluate MLP regressor&lt;/div&gt;" style="rounded=1;whiteSpace=wrap;html=1;shadow=0;strokeWidth=1;fontSize=19;" parent="1" vertex="1">
          <mxGeometry x="330" y="110" width="240" height="80" as="geometry" />
        </mxCell>
        <mxCell id="FXe-sDpAwAi_hHGuQjFn-217" style="edgeStyle=orthogonalEdgeStyle;rounded=0;orthogonalLoop=1;jettySize=auto;html=1;entryX=0;entryY=0.5;entryDx=0;entryDy=0;" edge="1" parent="1" source="4" target="8">
          <mxGeometry relative="1" as="geometry" />
        </mxCell>
        <mxCell id="4" value="&lt;b&gt;3_lstm.py&lt;/b&gt;&lt;div&gt;Train &amp;amp; evaluate LSTM&lt;/div&gt;" style="rounded=1;whiteSpace=wrap;html=1;shadow=0;strokeWidth=1;fontSize=19;" parent="1" vertex="1">
          <mxGeometry x="330" y="220" width="240" height="80" as="geometry" />
        </mxCell>
        <mxCell id="5" value="&lt;b&gt;4_gru.py&lt;/b&gt;&lt;div&gt;Train &amp;amp; evaluate GRU&lt;/div&gt;" style="rounded=1;whiteSpace=wrap;html=1;shadow=0;strokeWidth=1;fontSize=19;" parent="1" vertex="1">
          <mxGeometry x="330" y="330" width="240" height="80" as="geometry" />
        </mxCell>
        <mxCell id="FXe-sDpAwAi_hHGuQjFn-214" style="edgeStyle=orthogonalEdgeStyle;rounded=0;orthogonalLoop=1;jettySize=auto;html=1;entryX=0;entryY=0.5;entryDx=0;entryDy=0;" edge="1" parent="1" source="6" target="8">
          <mxGeometry relative="1" as="geometry" />
        </mxCell>
        <mxCell id="6" value="&lt;b&gt;5_rnn.py&lt;/b&gt;&lt;div&gt;Train &amp;amp; evaluate (vanilla) RNN&lt;/div&gt;" style="rounded=1;whiteSpace=wrap;html=1;shadow=0;strokeWidth=1;fontSize=19;" parent="1" vertex="1">
          <mxGeometry x="330" y="440" width="240" height="80" as="geometry" />
        </mxCell>
        <mxCell id="7" value="&lt;b&gt;6_cnn.py&lt;/b&gt;&lt;div&gt;Train &amp;amp; evaluate 1D-CNN&lt;/div&gt;" style="rounded=1;whiteSpace=wrap;html=1;shadow=0;strokeWidth=1;fontSize=19;" parent="1" vertex="1">
          <mxGeometry x="330" y="550" width="240" height="80" as="geometry" />
        </mxCell>
        <mxCell id="8" value="&lt;font style=&quot;font-size: 19px;&quot;&gt;&lt;b&gt;7_ensemble.py&lt;/b&gt;&lt;/font&gt;&lt;div&gt;&lt;div&gt;&lt;font style=&quot;font-size: 19px;&quot;&gt;Evaluate ensemble&lt;/font&gt;&lt;/div&gt;&lt;div&gt;&lt;font style=&quot;font-size: 19px;&quot;&gt;(LSTM + GRU + RNN)&lt;/font&gt;&lt;/div&gt;&lt;/div&gt;" style="rounded=1;whiteSpace=wrap;html=1;shadow=0;strokeWidth=1;" parent="1" vertex="1">
          <mxGeometry x="720" y="320" width="200" height="100" as="geometry" />
        </mxCell>
        <mxCell id="FXe-sDpAwAi_hHGuQjFn-223" style="edgeStyle=orthogonalEdgeStyle;rounded=0;orthogonalLoop=1;jettySize=auto;html=1;entryX=0.5;entryY=1;entryDx=0;entryDy=0;" edge="1" parent="1" source="9" target="FXe-sDpAwAi_hHGuQjFn-215">
          <mxGeometry relative="1" as="geometry" />
        </mxCell>
        <mxCell id="9" value="&lt;font style=&quot;font-size: 19px;&quot;&gt;&lt;b&gt;8_sentiment.py&lt;/b&gt;&lt;/font&gt;&lt;div&gt;&lt;font style=&quot;font-size: 19px;&quot;&gt;Crawl LLM-based sentiment via APIs&lt;/font&gt;&lt;/div&gt;&lt;div&gt;&lt;font style=&quot;font-size: 19px;&quot;&gt;â†’ enrich features&lt;/font&gt;&lt;/div&gt;" style="rounded=1;whiteSpace=wrap;html=1;shadow=0;strokeWidth=1;dashed=1;dashPattern=6 6;" parent="1" vertex="1">
          <mxGeometry x="285" y="690" width="300" height="100" as="geometry" />
        </mxCell>
        <mxCell id="206" style="edgeStyle=orthogonalEdgeStyle;endArrow=block;endFill=1;html=1;strokeWidth=1;rounded=0;" parent="1" source="5" target="8" edge="1">
          <mxGeometry relative="1" as="geometry" />
        </mxCell>
        <mxCell id="Ah8lOHSkubVP9YHAVAq6-210" style="edgeStyle=orthogonalEdgeStyle;rounded=0;orthogonalLoop=1;jettySize=auto;html=1;" edge="1" parent="1" source="Ah8lOHSkubVP9YHAVAq6-209" target="2">
          <mxGeometry relative="1" as="geometry" />
        </mxCell>
        <mxCell id="Ah8lOHSkubVP9YHAVAq6-209" value="&lt;span style=&quot;font-size: 19px;&quot;&gt;Yahoo Finance (yfinance)&lt;/span&gt;" style="shape=cylinder3;whiteSpace=wrap;html=1;boundedLbl=1;backgroundOutline=1;size=15;" vertex="1" parent="1">
          <mxGeometry x="-330" y="125" width="120" height="150" as="geometry" />
        </mxCell>
        <mxCell id="Ah8lOHSkubVP9YHAVAq6-213" style="edgeStyle=orthogonalEdgeStyle;rounded=0;orthogonalLoop=1;jettySize=auto;html=1;entryX=0;entryY=0.5;entryDx=0;entryDy=0;" edge="1" parent="1" source="Ah8lOHSkubVP9YHAVAq6-211" target="2">
          <mxGeometry relative="1" as="geometry" />
        </mxCell>
        <mxCell id="Ah8lOHSkubVP9YHAVAq6-211" value="&lt;span style=&quot;font-size: 19px;&quot;&gt;GPR daily&lt;/span&gt;&lt;div&gt;&lt;span style=&quot;font-size: 19px;&quot;&gt;(&lt;/span&gt;&lt;span style=&quot;font-size: 19px; background-color: transparent; color: light-dark(rgb(0, 0, 0), rgb(255, 255, 255));&quot;&gt;iacoviello&lt;/span&gt;&lt;span style=&quot;font-size: 19px; background-color: transparent; color: light-dark(rgb(0, 0, 0), rgb(255, 255, 255));&quot;&gt;)&lt;/span&gt;&lt;/div&gt;" style="shape=cylinder3;whiteSpace=wrap;html=1;boundedLbl=1;backgroundOutline=1;size=15;" vertex="1" parent="1">
          <mxGeometry x="-330" y="295" width="120" height="150" as="geometry" />
        </mxCell>
        <mxCell id="Ah8lOHSkubVP9YHAVAq6-214" style="edgeStyle=orthogonalEdgeStyle;rounded=0;orthogonalLoop=1;jettySize=auto;html=1;entryX=0.5;entryY=1;entryDx=0;entryDy=0;" edge="1" parent="1" source="Ah8lOHSkubVP9YHAVAq6-212" target="2">
          <mxGeometry relative="1" as="geometry" />
        </mxCell>
        <mxCell id="Ah8lOHSkubVP9YHAVAq6-212" value="&lt;span style=&quot;font-size: 19px;&quot;&gt;CNN Fear &amp;amp; Greed API&lt;/span&gt;" style="shape=cylinder3;whiteSpace=wrap;html=1;boundedLbl=1;backgroundOutline=1;size=15;" vertex="1" parent="1">
          <mxGeometry x="-330" y="470" width="120" height="150" as="geometry" />
        </mxCell>
        <mxCell id="FXe-sDpAwAi_hHGuQjFn-208" value="&lt;font style=&quot;font-size: 23px;&quot;&gt;&lt;b&gt;Data crawler&lt;/b&gt;&lt;/font&gt;" style="text;html=1;align=center;verticalAlign=middle;resizable=0;points=[];autosize=1;strokeColor=none;fillColor=none;" vertex="1" parent="1">
          <mxGeometry x="-170" y="80" width="160" height="40" as="geometry" />
        </mxCell>
        <mxCell id="FXe-sDpAwAi_hHGuQjFn-216" value="&lt;font style=&quot;font-size: 23px;&quot;&gt;&lt;b&gt;Model training&lt;/b&gt;&lt;/font&gt;" style="text;html=1;align=center;verticalAlign=middle;resizable=0;points=[];autosize=1;strokeColor=none;fillColor=none;" vertex="1" parent="1">
          <mxGeometry x="390" y="50" width="180" height="40" as="geometry" />
        </mxCell>
        <mxCell id="FXe-sDpAwAi_hHGuQjFn-222" value="" style="edgeStyle=orthogonalEdgeStyle;rounded=0;orthogonalLoop=1;jettySize=auto;html=1;" edge="1" parent="1" source="8" target="FXe-sDpAwAi_hHGuQjFn-221">
          <mxGeometry relative="1" as="geometry">
            <mxPoint x="1170" y="370.0000000000002" as="targetPoint" />
            <mxPoint x="990" y="370" as="sourcePoint" />
          </mxGeometry>
        </mxCell>
        <mxCell id="FXe-sDpAwAi_hHGuQjFn-221" value="&lt;b style=&quot;font-size: 19px;&quot;&gt;Prediction of META_CLOSE for next trading day&lt;/b&gt;&lt;div&gt;&lt;span style=&quot;font-size: 19px;&quot;&gt;Output is no financial advice&amp;nbsp; &amp;nbsp; &amp;nbsp;&lt;/span&gt;&lt;/div&gt;" style="rounded=1;whiteSpace=wrap;html=1;shadow=0;strokeWidth=1;" vertex="1" parent="1">
          <mxGeometry x="950" y="320" width="270" height="100" as="geometry" />
        </mxCell>
        <mxCell id="FXe-sDpAwAi_hHGuQjFn-224" value="" style="verticalLabelPosition=bottom;verticalAlign=top;html=1;shape=mxgraph.basic.smiley" vertex="1" parent="1">
          <mxGeometry x="1195" y="382" width="20" height="20" as="geometry" />
        </mxCell>
      </root>
    </mxGraphModel>
  </diagram>
</mxfile>
